<svg xmlns="http://www.w3.org/2000/svg" viewBox="0 0 387.94 99.86"><title>Logo Slots</title><g id="Calque_2" data-name="Calque 2"><path d="M305,191.93a19.87,19.87,0,1,0-19.87-19.86A19.89,19.89,0,0,0,305,191.93Zm0-37.73a17.87,17.87,0,1,1-17.87,17.87A17.89,17.89,0,0,1,305,154.2Z" transform="translate(-107.86 -107.68)" style="fill:#13213c"/><path d="M336.6,172.07a31.6,31.6,0,0,0-63.2,0c0,.67,0,1.33.07,2h-.07c0,20,12.7,33.46,31.6,33.46s31.6-13.85,31.6-34.46h0C336.59,172.73,336.6,172.4,336.6,172.07ZM305,142.47a29.6,29.6,0,1,1-29.6,29.6A29.63,29.63,0,0,1,305,142.47Zm19.73,55.81a26.62,26.62,0,0,1-2.4,2v-1.77c.83-.55,1.63-1.13,2.4-1.75Zm-39.5.36v-1.95c.79.63,1.6,1.23,2.44,1.78v2.1a24.43,24.43,0,0,1-2.47-1.93Zm4.44,3.09v-2a30.52,30.52,0,0,0,3.2,1.56v2.09a26.07,26.07,0,0,1-3.32-1.6Zm5.2,2.27v-2a31,31,0,0,0,3.46,1v2a31.43,31.43,0,0,1-3.59-.92Zm5.46,1.2v-1.88a31.67,31.67,0,0,0,3.67.32v1.87a33.78,33.78,0,0,1-4-.31Zm5.67-1.56a31.81,31.81,0,0,0,3.4-.29v1.89a31.4,31.4,0,0,1-3.4.27Zm5.4-.63a30.13,30.13,0,0,0,3.33-.88v1.93a29,29,0,0,1-3.33.86Zm5.33-1.61a30.5,30.5,0,0,0,3.6-1.72v1.86a26.24,26.24,0,0,1-3.6,1.79Zm-38.6-12.72a32,32,0,0,0,5.1,6.26v1.78A28,28,0,0,1,278.13,188.68Zm48.6,7.56V195a30.77,30.77,0,0,0,4-4.56A28.13,28.13,0,0,1,326.73,196.24Z" transform="translate(-107.86 -107.68)" style="fill:#13213c"/><path d="M304.2,180.13a1.16,1.16,0,0,0,.8.32,1.18,1.18,0,0,0,.8-.32c1.41-1.27,6.11-5.59,7.45-7.49a4.85,4.85,0,0,0-.08-5,4.69,4.69,0,0,0-4.26-2.67,4.88,4.88,0,0,0-3.9,2.88,4.79,4.79,0,0,0-3.87-2.88,4.69,4.69,0,0,0-4.26,2.67,4.85,4.85,0,0,0-.08,5C298.13,174.53,302.8,178.85,304.2,180.13Zm-5.57-11.58a2.8,2.8,0,0,1,2.31-1.64h.1c1.87.1,2.77,3.05,2.93,3.64a1.07,1.07,0,0,0,1,.79l.83-.05.2-.73c.17-.59,1.1-3.55,3-3.65a2.75,2.75,0,0,1,2.41,1.64,3,3,0,0,1,.2,2.94,67.7,67.7,0,0,1-6.62,6.67,69.44,69.44,0,0,1-6.57-6.67A3,3,0,0,1,298.63,168.55Z" transform="translate(-107.86 -107.68)" style="fill:#13213c"/><circle cx="197.58" cy="39.69" r="2.1" style="fill:#13213c"/><path d="M323,157.47a2.1,2.1,0,1,0-2.1-2.1A2.11,2.11,0,0,0,323,157.47Z" transform="translate(-107.86 -107.68)" style="fill:#13213c"/><path d="M329.53,173.67a2.1,2.1,0,1,0-2.1-2.1A2.11,2.11,0,0,0,329.53,173.67Z" transform="translate(-107.86 -107.68)" style="fill:#13213c"/><circle cx="214.98" cy="81.19" r="2.1" style="fill:#13213c"/><path d="M305.53,194.37a2.1,2.1,0,1,0,2.1,2.1A2.11,2.11,0,0,0,305.53,194.37Z" transform="translate(-107.86 -107.68)" style="fill:#13213c"/><path d="M288,188a2.1,2.1,0,1,0,2.1,2.1A2.11,2.11,0,0,0,288,188Z" transform="translate(-107.86 -107.68)" style="fill:#13213c"/><path d="M280.53,169.47a2.1,2.1,0,1,0,2.1,2.1A2.11,2.11,0,0,0,280.53,169.47Z" transform="translate(-107.86 -107.68)" style="fill:#13213c"/><path d="M288.13,156.27a2.1,2.1,0,1,0-2.1-2.1A2.11,2.11,0,0,0,288.13,156.27Z" transform="translate(-107.86 -107.68)" style="fill:#13213c"/><path d="M115.14,183.81c7.68,4.86,17.78,8.9,27.22,8.9s13.88-4.85,14-10.65c0-4.58-2.69-8.89-10.37-12.26l-15.91-6.74c-11.18-4.85-18.86-12-18.86-24.12,0-15.9,13.47-27.22,31.67-27.22a68.44,68.44,0,0,1,30.18,7.41,20.85,20.85,0,0,1-6.33,13.75c-7-3.37-16.58-6.47-23.72-6.47-8.76,0-13.34,4.85-13.34,10.24,0,4.58,3.23,7.55,9.57,10.24l15.9,6.74c12.26,5.25,20.21,14,20.21,25.87,0,16-11.32,28-34.23,28a63.22,63.22,0,0,1-33.28-10A22.5,22.5,0,0,1,115.14,183.81Z" transform="translate(-107.86 -107.68)" style="fill:#13213c"/><path d="M241.53,193.92a24.51,24.51,0,0,1,1.48,8.49,17.41,17.41,0,0,1-.4,3.91,93.87,93.87,0,0,1-13.07,1.21c-10.51,0-15.1-5.25-15.1-16.44V108.62l.95-.94h6.74c7.14,0,9.56,3.1,9.56,10.91v69.13c0,4.05,1.62,6.2,5.66,6.2Z" transform="translate(-107.86 -107.68)" style="fill:#13213c"/><path d="M412,146.08a25.72,25.72,0,0,1-.81,6.47l-16.31-.27v35.44c0,3.91,1.62,6.2,5.8,6.2H409a28.7,28.7,0,0,1,1.35,8.49,12.16,12.16,0,0,1-.4,3.91,122.24,122.24,0,0,1-16.18,1.21c-10.78,0-16.17-5.25-16.17-16.44V152.42l-10.24.13a25.67,25.67,0,0,1-.67-6.47,24.93,24.93,0,0,1,.67-6.2l10.24.14v-9.7c0-7.82,2.43-10.79,9.57-10.79h6.74l.94.81v19.81l16.31-.27A25.27,25.27,0,0,1,412,146.08Z" transform="translate(-107.86 -107.68)" style="fill:#13213c"/><path d="M448.9,188.8c5.8,3.1,12.94,5.8,18.73,5.8,6.34,0,9.84-2.7,10-6.47,0-3.24-2.43-5.8-7.28-7.55l-7.55-2.83c-9.43-3.5-17-9.16-17-19.81,0-12.94,10.25-21,25.07-21a61.74,61.74,0,0,1,23.45,5.25c.13,4.18-2.16,10.11-5,12.4-5.12-2.29-11.86-4.71-18.46-4.71-4.72,0-7.55,2.56-7.55,6.06,0,3,2.16,4.85,6.74,6.6l8.22,3c10.11,3.77,17.52,10.1,17.52,21,0,12.94-10.78,21-26.55,21a53,53,0,0,1-25.6-6.6A21.11,21.11,0,0,1,448.9,188.8Z" transform="translate(-107.86 -107.68)" style="fill:#13213c"/></g></svg>