<svg xmlns="http://www.w3.org/2000/svg" viewBox="0 0 50.49 186.1"><title>levier machine</title><g id="Calque_2" data-name="Calque 2"><path d="M526.83,365.09H539a0,0,0,0,1,0,0v103.2a0,0,0,0,1,0,0H526.83a32.43,32.43,0,0,1-32.43-32.43V397.52A32.43,32.43,0,0,1,526.83,365.09Z" transform="translate(544.89 551.19) rotate(-180)" style="fill:#b5700b"/><circle cx="25.2" cy="122.3" r="14" style="fill:#a34f04"/><path d="M17.67,37.7H32.73a0,0,0,0,1,0,0v87.6a3.87,3.87,0,0,1-3.87,3.87H21.53a3.87,3.87,0,0,1-3.87-3.87V37.7A0,0,0,0,1,17.67,37.7Z" style="fill:#f09b04"/><ellipse cx="25.2" cy="25.53" rx="25.2" ry="25.53" style="fill:#8628bc"/></g></svg>