<svg xmlns="http://www.w3.org/2000/svg" viewBox="0 0 50.49 175.43"><title>levier machine baissé</title><g id="Calque_2" data-name="Calque 2"><path d="M526.83,365.09H539a0,0,0,0,1,0,0v103.2a0,0,0,0,1,0,0H526.83a32.43,32.43,0,0,1-32.43-32.43V397.52A32.43,32.43,0,0,1,526.83,365.09Z" transform="translate(544.89 468.29) rotate(-180)" style="fill:#b5700b"/><circle cx="25.2" cy="39.4" r="14" style="fill:#a34f04"/><path d="M506.18,411.36h15.07a0,0,0,0,1,0,0V499a3.87,3.87,0,0,1-3.87,3.87H510a3.87,3.87,0,0,1-3.87-3.87v-87.6A0,0,0,0,1,506.18,411.36Z" transform="translate(538.91 549.09) rotate(180)" style="fill:#f09b04"/><ellipse cx="25.2" cy="149.9" rx="25.2" ry="25.53" style="fill:#8628bc"/></g></svg>