<svg xmlns="http://www.w3.org/2000/svg" viewBox="0 0 148.19 181.13"><title>machineclotdroite</title><g id="Calque_2" data-name="Calque 2"><path d="M465.07,343.76a32.4,32.4,0,0,1,32.4,32.4v80.53a32.41,32.41,0,0,1-32.4,32.4" transform="translate(-349.28 -326.09)" style="fill:#d3860b"/><path d="M438.1,326.09H349.46c.83,60.21-.69,120.89,0,181.13H438.1a32.7,32.7,0,0,0,32.7-32.7V358.79A32.7,32.7,0,0,0,438.1,326.09Zm3.5,140a9.8,9.8,0,0,1-9.8,9.8H371.6a9.8,9.8,0,0,1-9.8-9.8V361.69a9.8,9.8,0,0,1,9.8-9.8h60.2a9.8,9.8,0,0,1,9.8,9.8Z" transform="translate(-349.28 -326.09)" style="fill:#f09b04"/><path d="M436.67,346.69h-87c.26,44.9-.49,90-.38,134.93h87.38a17.06,17.06,0,0,0,17.06-17.06V363.76A17.06,17.06,0,0,0,436.67,346.69Zm4.93,119.4a9.8,9.8,0,0,1-9.8,9.8H371.6a9.8,9.8,0,0,1-9.8-9.8V361.69a9.8,9.8,0,0,1,9.8-9.8h60.2a9.8,9.8,0,0,1,9.8,9.8Z" transform="translate(-349.28 -326.09)" style="fill:#eab97a"/><path d="M431.92,422.45l19.19,15.36a6.52,6.52,0,0,0,10.6-5.1V402a6.52,6.52,0,0,0-10.6-5.09l-19.19,15.35A6.53,6.53,0,0,0,431.92,422.45Z" transform="translate(-349.28 -326.09)" style="fill:#f09b04"/><path d="M436.15,420.67,451.59,433a4.24,4.24,0,0,0,6.9-3.31V405a4.24,4.24,0,0,0-6.9-3.32L436.15,414A4.24,4.24,0,0,0,436.15,420.67Z" transform="translate(-349.28 -326.09)" style="fill:#8628bc"/></g></svg>