<svg xmlns="http://www.w3.org/2000/svg" viewBox="0 0 438.47 181.13"><title>MACHINE A SLOT</title><g id="Calque_2" data-name="Calque 2"><path d="M32.43,39H44.6a0,0,0,0,1,0,0V142.2a0,0,0,0,1,0,0H32.43A32.43,32.43,0,0,1,0,109.77V71.43A32.43,32.43,0,0,1,32.43,39Z" style="fill:#b5700b"/><path d="M125.6,489.09a32.41,32.41,0,0,1-32.4-32.4V376.16a32.4,32.4,0,0,1,32.4-32.4" transform="translate(-59 -326.09)" style="fill:#d3860b"/><path d="M465.07,343.76a32.4,32.4,0,0,1,32.4,32.4v80.53a32.41,32.41,0,0,1-32.4,32.4" transform="translate(-59 -326.09)" style="fill:#d3860b"/><path d="M438.1,326.09H152a32.7,32.7,0,0,0-32.7,32.7V474.52a32.7,32.7,0,0,0,32.7,32.7H438.1a32.7,32.7,0,0,0,32.7-32.7V358.79A32.7,32.7,0,0,0,438.1,326.09Zm-210.37,140a9.8,9.8,0,0,1-9.8,9.8h-60.2a9.8,9.8,0,0,1-9.8-9.8V361.69a9.8,9.8,0,0,1,9.8-9.8h60.2a9.8,9.8,0,0,1,9.8,9.8Zm106.67,0a9.8,9.8,0,0,1-9.8,9.8H264.4a9.8,9.8,0,0,1-9.8-9.8V361.69a9.8,9.8,0,0,1,9.8-9.8h60.2a9.8,9.8,0,0,1,9.8,9.8Zm107.2,0a9.8,9.8,0,0,1-9.8,9.8H371.6a9.8,9.8,0,0,1-9.8-9.8V361.69a9.8,9.8,0,0,1,9.8-9.8h60.2a9.8,9.8,0,0,1,9.8,9.8Z" transform="translate(-59 -326.09)" style="fill:#f09b04"/><path d="M436.67,346.69H154a17.07,17.07,0,0,0-17.07,17.07v100.8A17.06,17.06,0,0,0,154,481.62H436.67a17.06,17.06,0,0,0,17.06-17.06V363.76A17.06,17.06,0,0,0,436.67,346.69ZM227.73,466.09a9.8,9.8,0,0,1-9.8,9.8h-60.2a9.8,9.8,0,0,1-9.8-9.8V361.69a9.8,9.8,0,0,1,9.8-9.8h60.2a9.8,9.8,0,0,1,9.8,9.8Zm106.67,0a9.8,9.8,0,0,1-9.8,9.8H264.4a9.8,9.8,0,0,1-9.8-9.8V361.69a9.8,9.8,0,0,1,9.8-9.8h60.2a9.8,9.8,0,0,1,9.8,9.8Zm107.2,0a9.8,9.8,0,0,1-9.8,9.8H371.6a9.8,9.8,0,0,1-9.8-9.8V361.69a9.8,9.8,0,0,1,9.8-9.8h60.2a9.8,9.8,0,0,1,9.8,9.8Z" transform="translate(-59 -326.09)" style="fill:#eab97a"/><path d="M431.92,422.45l19.19,15.36a6.52,6.52,0,0,0,10.6-5.1V402a6.52,6.52,0,0,0-10.6-5.09l-19.19,15.35A6.53,6.53,0,0,0,431.92,422.45Z" transform="translate(-59 -326.09)" style="fill:#f09b04"/><path d="M436.15,420.67,451.59,433a4.24,4.24,0,0,0,6.9-3.31V405a4.24,4.24,0,0,0-6.9-3.32L436.15,414A4.24,4.24,0,0,0,436.15,420.67Z" transform="translate(-59 -326.09)" style="fill:#8628bc"/><path d="M157.93,423l-19.19,15.36a6.52,6.52,0,0,1-10.6-5.09V402.53a6.52,6.52,0,0,1,10.6-5.09l19.19,15.36A6.51,6.51,0,0,1,157.93,423Z" transform="translate(-59 -326.09)" style="fill:#f09b04"/><path d="M153.71,421.21l-15.44,12.35a4.25,4.25,0,0,1-6.91-3.32v-24.7a4.25,4.25,0,0,1,6.91-3.32l15.44,12.35A4.25,4.25,0,0,1,153.71,421.21Z" transform="translate(-59 -326.09)" style="fill:#8628bc"/></g></svg>