<svg xmlns="http://www.w3.org/2000/svg" viewBox="0 0 183 181.13"><title>machineclotgauche</title><g id="Calque_2" data-name="Calque 2"><path d="M32.43,39H44.6a0,0,0,0,1,0,0V142.2a0,0,0,0,1,0,0H32.43A32.43,32.43,0,0,1,0,109.77V71.43A32.43,32.43,0,0,1,32.43,39Z" style="fill:#b5700b"/><path d="M125.6,489.09a32.41,32.41,0,0,1-32.4-32.4V376.16a32.4,32.4,0,0,1,32.4-32.4" transform="translate(-59 -326.09)" style="fill:#d3860b"/><path d="M152,326.09a32.7,32.7,0,0,0-32.7,32.7V474.52a32.7,32.7,0,0,0,32.7,32.7h90c0-60.37-.13-120.75-.74-181.13Zm65.9,149.8h-60.2a9.8,9.8,0,0,1-9.8-9.8V361.69a9.8,9.8,0,0,1,9.8-9.8h60.2a9.8,9.8,0,0,1,9.8,9.8v104.4A9.8,9.8,0,0,1,217.93,475.89Z" transform="translate(-59 -326.09)" style="fill:#f09b04"/><path d="M154,346.69a17.07,17.07,0,0,0-17.07,17.07v100.8A17.06,17.06,0,0,0,154,481.62h88q0-67.46-.54-134.93Zm63.93,129.2h-60.2a9.8,9.8,0,0,1-9.8-9.8V361.69a9.8,9.8,0,0,1,9.8-9.8h60.2a9.8,9.8,0,0,1,9.8,9.8v104.4A9.8,9.8,0,0,1,217.93,475.89Z" transform="translate(-59 -326.09)" style="fill:#eab97a"/><path d="M157.93,423l-19.19,15.36a6.52,6.52,0,0,1-10.6-5.09V402.53a6.52,6.52,0,0,1,10.6-5.09l19.19,15.36A6.51,6.51,0,0,1,157.93,423Z" transform="translate(-59 -326.09)" style="fill:#f09b04"/><path d="M153.71,421.21l-15.44,12.35a4.25,4.25,0,0,1-6.91-3.32v-24.7a4.25,4.25,0,0,1,6.91-3.32l15.44,12.35A4.25,4.25,0,0,1,153.71,421.21Z" transform="translate(-59 -326.09)" style="fill:#8628bc"/></g></svg>