<svg xmlns="http://www.w3.org/2000/svg" viewBox="0 0 108.47 181.13"><title>machineclotmilieu</title><g id="Calque_2" data-name="Calque 2"><path d="M349.46,326.09H241.26c.61,60.38.72,120.76.74,181.13H349.46C348.77,447,350.29,386.3,349.46,326.09Zm-15.06,140a9.8,9.8,0,0,1-9.8,9.8H264.4a9.8,9.8,0,0,1-9.8-9.8V361.69a9.8,9.8,0,0,1,9.8-9.8h60.2a9.8,9.8,0,0,1,9.8,9.8Z" transform="translate(-241.26 -326.09)" style="fill:#f09b04"/><path d="M349.67,346.69H241.44q.57,67.47.54,134.93H349.29C349.18,436.69,349.93,391.59,349.67,346.69ZM334.4,466.09a9.8,9.8,0,0,1-9.8,9.8H264.4a9.8,9.8,0,0,1-9.8-9.8V361.69a9.8,9.8,0,0,1,9.8-9.8h60.2a9.8,9.8,0,0,1,9.8,9.8Z" transform="translate(-241.26 -326.09)" style="fill:#eab97a"/></g></svg>